PathFileType	4	(X/Y/Z)	C:/Users/beibeiliu/ov580/test_trc/User1\sequence.36_training_dense_right.trc
DataRate	CameraRate	NumFrames	NumMarkers	Units	OrigDataRate	OrigDataStartFrame	OrigNumFrames
120	120	24	19	mm	120	124	246
Frame#	Time	ThumbCMC			ThumbMCP			ThumbIP			ThumbTip			IndexMCP			IndexPIP			IndexTip			MiddleMCP			MiddlePIP			MiddleTip			RingMCP			RingPIP			RingTip			PinkyMCP			PinkyPIP			PinkyTip			BackHand1			BackHand2			BackHand3	
		X0	Y0	Z0	X1	Y1	Z1	X2	Y2	Z2	X3	Y3	Z3	X4	Y4	Z4	X5	Y5	Z5	X6	Y6	Z6	X7	Y7	Z7	X8	Y8	Z8	X9	Y9	Z9	X10	Y10	Z10	X11	Y11	Z11	X12	Y12	Z12	X13	Y13	Z13	X14	Y14	Z14	X15	Y15	Z15	X16	Y16	Z16	X17	Y17	Z17	X18	Y18	Z18	
123	1.025	168.105	-8.05881	56.6463	139.607	0.41105	30.1033	126.787	-2.56634	9.89031	106.35	-4.28934	-12.3351	161.647	-31.2387	-23.551	129.682	-31.2698	-29.8158	106.171	-31.3787	0.0815238	156.534	-59.9423	-22.4212	121.5	-52.252	-20.4442	112.42	-41.8865	14.4606	147.031	-79.299	-14.3467	116.852	-67.3259	-6.22437	117.605	-57.6287	24.3173	148.565	-98.1311	5.76612	119.95	-82.4481	6.87566	121.214	-63.7827	32.9629	189.441	-79.5019	38.7906	194.495	-72.889	75.3894	196.713	-39.7505	50.7567	
124	1.03333	165.636	-11.1966	55.1266	138.123	-2.54543	34.3948	120.96	-2.497	10.0241	104.292	-8.71044	-8.75261	157.66	-30.8125	-24.5406	126.466	-32.1202	-28.0392	105.757	-30.0241	-1.95044	153.109	-55.6358	-24.9446	121.085	-55.1329	-21.6497	111.216	-44.8183	17.5423	146.113	-80.7986	-12.0334	114.782	-70.7782	-5.33258	117.606	-55.853	26.0232	144.075	-98.0869	4.09603	119.204	-82.6451	8.36207	123.303	-64.189	32.0952	187.476	-75.9402	36.8281	193.991	-68.8281	74.2404	195.541	-37.5262	49.1476	
125	1.04167	164.647	-9.58708	56.5958	133.763	-1.6078	33.4699	117.934	-3.06576	13.0623	99.8961	-7.46385	-8.12176	158.787	-29.6347	-21.6903	126.944	-30.018	-29.1677	103.282	-30.8853	-0.673333	153.828	-58.8625	-22.7955	117.071	-49.6001	-20.3555	111.061	-44.9227	19.7491	145.803	-76.563	-12.9691	112.736	-70.0049	-2.39284	115.28	-56.8597	24.5253	147.187	-93.6891	6.40253	121.3	-83.3314	4.6993	121.886	-64.1631	30.8394	189.365	-78.1308	36.7188	192.699	-71.3533	72.3393	194.101	-37.5474	47.916	
126	1.05	162.657	-10.2068	55.3846	132.98	-3.34984	35.9631	115.539	-1.3737	13.0855	98.3264	-6.926	-3.24645	157.355	-26.9124	-21.253	122.694	-32.4287	-27.1232	101.632	-35.0634	-1.33633	151.161	-58.1614	-24.4039	116.686	-52.631	-19.6277	109.539	-47.0434	17.3926	143.507	-79.658	-12.9837	113.704	-69.4416	-5.32745	113.926	-59.328	27.93	145.857	-96.2015	6.96534	117.589	-85.0094	7.74323	121.482	-62.5915	31.9578	188.747	-73.7337	36.2013	193.469	-72.4121	73.2699	195.623	-37.3897	46.9272	
127	1.05833	162.126	-8.68473	55.4667	132.153	-6.69837	34.2534	114.088	-2.67618	16.3434	95.9256	-5.59267	-3.37029	155.43	-30.6706	-21.4321	122.08	-28.0294	-27.8637	99.2878	-30.3401	-1.37425	152.35	-54.2394	-23.3305	115.683	-52.454	-18.554	108.738	-43.7794	18.8291	144.923	-75.2359	-12.6098	110.569	-68.4909	-3.18323	111.891	-59.7003	26.1638	142.082	-96.8276	4.03098	116.876	-81.2898	8.63653	118.994	-62.2687	33.712	186.112	-75.4942	36.3916	191.539	-67.4519	75.8652	192.248	-38.9443	51.2764	
128	1.06667	160.917	-5.26635	57.337	131.275	-4.73318	38.4602	113.371	-3.41231	15.3666	93.1212	-3.64194	-5.52726	155.116	-27.0829	-22.1089	125.478	-31.3852	-28.7065	101	-31.8353	-4.57928	153.84	-54.6663	-21.0769	115.658	-49.0146	-20.9996	107.837	-42.0696	18.0971	143.646	-74.4134	-14.1085	110.968	-66.7397	-5.19811	112.59	-55.3443	26.5709	141.819	-96.8333	5.0908	118.714	-81.8253	4.06993	119.72	-61.8285	27.5249	184.97	-74.5448	35.5657	193.126	-70.4275	73.3395	191.793	-37.6874	51.5872	
129	1.075	160.245	-8.32666	54.7787	130.921	-3.15327	34.5735	112.793	1.10875	14.0759	93.6156	-0.824628	-3.5193	152.664	-29.7045	-23.9502	123.826	-28.1301	-29.5513	100.023	-30.5313	-4.34807	150.353	-53.0719	-24.9665	114.602	-51.1094	-20.7212	106.485	-39.1705	16.8186	144.512	-74.2369	-12.6701	112.493	-68.6737	-8.0913	110.902	-56.2418	26.6135	145.955	-92.1147	6.39383	115.267	-82.0279	7.7221	117.28	-63.1615	32.4972	185.247	-72.3011	36.8747	190.718	-66.0941	74.7319	192.705	-35.0291	49.3084	
130	1.08333	161.475	-7.37822	57.0497	130.332	1.13498	32.7135	114.64	0.320554	10.7869	96.2924	-2.33349	-5.31402	154.473	-27.5903	-22.2886	123.632	-26.0879	-28.9384	99.9655	-31.6075	-3.67094	148.348	-56.5021	-23.9314	114.154	-49.155	-19.5901	104.836	-41.2911	14.0018	142.761	-75.2739	-12.2774	110.713	-65.7548	-5.81817	109.685	-53.6924	27.0008	143.052	-89.8972	3.99685	116.73	-82.5087	4.72574	116.131	-59.0364	31.688	186.057	-69.7831	35.8621	189.774	-70.3564	73.513	190.956	-36.3497	48.3659	
131	1.09167	161.811	-7.36493	54.3079	132.648	0.944924	36.8473	114.836	3.79089	10.0853	98.5874	-0.116673	-6.29066	155.973	-23.5664	-20.8474	123.924	-27.0984	-29.5122	100.657	-25.6006	-3.81157	152.38	-54.3979	-20.7946	113.871	-48.2012	-19.0993	104.506	-43.1576	17.5826	144.847	-74.7109	-10.7197	111.341	-65.5704	-6.67192	110.427	-54.9408	27.1775	144.222	-91.2877	4.42639	116.657	-78.4207	6.61201	114.731	-59.5459	31.0452	185.207	-68.9054	38.2395	192.388	-68.2594	69.2881	192.088	-36.0844	46.2762	
132	1.1	161.424	-2.20573	59.1685	133.881	4.3148	35.797	118.582	4.89501	7.72578	103.633	-3.05292	-8.84273	155.807	-28.8053	-19.9091	123.372	-30.699	-27.1014	98.758	-24.4235	1.47265	153.24	-50.5309	-22.326	114.104	-48.8631	-19.6391	104.132	-43.1988	14.6884	144.403	-73.7483	-11.7812	113.229	-65.7017	-8.70563	110.855	-51.9768	24.6112	146.688	-91.7552	6.67433	117.516	-76.9749	6.1979	119.14	-59.5142	28.8366	187.49	-71.2299	38.8115	190.839	-69.3369	74.2119	193.732	-33.5175	51.5108	
133	1.10833	163.042	-1.27918	58.976	138.035	2.03899	30.5317	124.991	2.22784	8.89288	109.207	-2.79173	-11.8367	154.472	-24.3363	-22.5196	122.162	-27.2127	-26.0863	100.414	-28.9193	3.66551	150.816	-54.6649	-22.2087	118.512	-46.842	-22.6764	104.79	-43.117	15.2257	146.486	-75.336	-11.4714	113.37	-69.0053	-8.08654	109.532	-58.0663	23.4219	144.419	-93.3533	4.62353	115.872	-79.265	6.16418	118.224	-59.7522	26.4842	185.535	-69.9174	37.6969	192.545	-64.1503	69.8819	192.463	-31.9986	49.3037	
134	1.11667	165.693	-5.19233	58.9237	143.007	4.37481	32.6853	130.29	8.66389	3.14354	116.611	0.673962	-18.2978	156.863	-27.691	-22.347	124.862	-25.4527	-28.511	101.584	-25.2635	1.68125	153.251	-50.6934	-24.1532	117.203	-47.7435	-22.2865	106.325	-41.419	18.0489	148.246	-72.346	-14.1706	115.574	-66.5641	-11.706	111.82	-51.4283	22.7756	148.874	-90.6181	5.30819	119.775	-76.2214	3.0791	117.849	-58.2169	25.6627	188.069	-68.1703	39.8572	190.389	-64.9167	75.1793	193.96	-36.0314	51.4885	
135	1.125	168.121	-2.70008	57.2015	147.984	10.3174	30.8779	138.307	10.9627	1.57654	126.405	2.36314	-18.6127	159.549	-23.5194	-21.6678	126.324	-29.6724	-28.0762	103.73	-29.0559	-0.915468	152.942	-53.0123	-24.5429	119.04	-48.4302	-23.2859	105.098	-41.5172	11.0328	147.422	-72.2435	-15.9645	115.112	-64.6734	-10.7981	110.204	-55.7412	18.1623	149.023	-89.4893	4.45809	119.173	-78.2198	1.85535	115.566	-58.9748	26.1084	186.74	-69.8732	36.5569	193.268	-64.7473	74.6299	193.213	-34.7162	47.3424	
136	1.13333	168.939	-2.25132	60.5828	154.126	6.89077	30.7441	146.688	8.50624	3.76137	136.138	4.35873	-19.9391	161.57	-28.5332	-21.2563	128.9	-25.3777	-30.47	104.372	-27.642	-0.886746	154.863	-52.9307	-23.3558	122.554	-46.4018	-25.7455	105.404	-42.0086	9.61529	150.878	-75.1695	-13.1688	118.124	-67.3997	-12.788	108.943	-54.7468	18.8865	150.471	-89.9947	3.31514	120.904	-79.2743	0.86576	117.175	-57.2268	23.4428	188.812	-70.6295	36.8476	190.853	-67.8603	75.5654	195.717	-35.7887	48.4599	
137	1.14167	170.429	-0.937963	60.282	159.102	9.23297	29.3015	155.149	12.5997	0.119879	143.459	7.12119	-19.2301	160.088	-26.535	-24.141	129.645	-25.2445	-29.8584	105.083	-24.1617	-5.58578	155.855	-51.8398	-22.9795	119.064	-43.5968	-23.8656	105.332	-37.7443	9.358	149.402	-74.0761	-15.5366	115.78	-62.8765	-12.974	109.395	-50.667	18.2726	148.092	-88.2563	1.64956	122.135	-78.046	-1.26434	114.08	-59.3025	25.4477	188.532	-73.4006	39.9398	193.888	-63.2965	73.0137	195.623	-32.5826	48.0326	
138	1.15	172.388	-0.936063	60.1774	162.483	11.0443	31.3932	159.709	13.9154	1.69579	150.027	12.5597	-23.2101	161.693	-27.3244	-23.3752	129.212	-24.3709	-29.9184	106.456	-25.3118	-5.98967	156.801	-51.1919	-24.0148	120.861	-43.7261	-22.7646	105.372	-41.2143	7.59082	152.883	-72.9381	-12.0977	116.641	-65.5267	-12.6101	109.219	-49.5727	16.2386	149.263	-88.4935	2.73242	123.538	-76.7616	-1.39189	114.004	-55.9234	23.1196	190.404	-69.9074	38.0928	193.298	-66.9619	73.8193	195.494	-34.1305	52.3436	
139	1.15833	172.749	-4.46298	61.9872	165.082	6.50671	31.2032	162.986	13.5476	2.97746	155.171	10.9149	-18.7306	164.392	-23.3467	-22.9571	131.294	-23.3756	-29.5587	108.901	-22.9544	-8.75684	159.948	-50.668	-23.2328	122.913	-44.8095	-23.67	106.266	-40.4769	7.53621	154.534	-70.5799	-11.7037	121.045	-65.5505	-14.3524	109.773	-50.7132	17.308	148.915	-90.8641	4.5818	126.036	-78.2695	-2.29143	115.399	-54.8897	21.4534	190.188	-69.0963	39.4401	194.521	-65.9345	75.9145	197.4	-35.5883	52.7751	
140	1.16667	175.124	-4.57876	60.628	166.681	12.151	33.2758	164.254	14.3577	7.45305	159.353	13.0632	-18.7226	167.845	-24.2981	-20.1478	132.503	-27.4448	-28.8402	108.462	-21.8546	-7.8544	163.771	-50.7841	-20.7887	125.678	-44.2053	-25.2757	105.814	-41.2405	6.78862	154.019	-75.332	-12.2846	121.962	-63.4304	-14.6076	110.03	-52.373	17.9617	153.624	-90.4597	7.99918	128.228	-79.2692	-2.43797	118.226	-52.8688	21.9013	189.057	-72.7856	44.1859	193.286	-65.6905	74.9902	198.645	-31.9859	52.6929	
141	1.175	175.629	-0.824804	63.6671	168.771	8.59817	31.5812	169.466	15.3661	4.34889	161.637	12.5091	-17.7892	166.448	-23.9673	-23.0576	136.022	-29.4098	-29.8792	110.605	-26.3662	-7.68445	163.505	-54.4966	-20.0263	128.447	-44.3583	-26.2034	106.629	-39.5411	4.17536	154.506	-70.8786	-13.3851	121.18	-64.7787	-12.3573	110.653	-50.6134	12.7593	153.052	-93.3886	8.49039	125.801	-78.1439	0.208227	117.041	-57.5772	20.7333	192.129	-69.1934	40.8082	195.008	-68.0417	78.3457	198.8	-37.267	53.1991	
142	1.18333	178.166	-2.35665	59.1904	171.312	12.2375	33.304	171.586	14.479	4.1283	163.431	13.5236	-16.9591	167.786	-28.2436	-22.0254	137.394	-27.3188	-30.3042	110.46	-24.5	-9.94749	162.28	-54.2919	-22.1462	129.403	-49.7158	-25.7148	107.471	-38.5954	8.72942	152.839	-73.9749	-13.7575	124.681	-64.3886	-15.3558	111.207	-50.2398	17.6497	152.063	-92.3332	6.70433	128.178	-78.7488	-1.3733	115.205	-56.376	22.0583	191.008	-69.9425	44.8063	195.65	-70.3402	74.7816	201.456	-34.5424	52.0597	
143	1.19167	178.645	-5.66462	59.2012	171.734	10.7416	34.5138	172.201	14.8947	3.32402	166.422	13.3322	-21.4236	169.905	-27.4944	-20.4489	135.059	-26.7998	-30.4121	110.263	-27.3899	-8.10665	164.476	-55.2812	-20.8561	129.197	-50.0225	-26.1497	108.13	-37.0808	7.06559	157.351	-74.7979	-10.2636	119.65	-65.7083	-10.9582	111.068	-51.0054	15.1516	153.448	-93.5398	9.10571	126.812	-81.4563	0.21521	119.94	-53.1838	19.3935	193.709	-70.8207	39.842	194.142	-65.8708	79.704	198.656	-36.3053	51.858	
144	1.2	177.592	-4.29021	63.9268	171.831	11.6581	33.0249	171.537	12.3667	4.9404	165.236	15.4777	-19.3666	168.226	-28.2165	-23.5439	135.173	-30.9978	-30.7636	111.344	-24.0127	-12.0102	166.006	-52.5431	-20.3587	128.907	-48.2424	-25.631	108.722	-37.7127	3.82236	155.199	-75.0504	-12.6554	124.513	-68.1787	-13.8437	110.997	-52.1553	16.6163	152.311	-94.9781	7.51766	125.709	-77.6402	-0.135778	119.932	-55.8338	16.6587	191.142	-71.7024	39.7751	195.426	-65.5505	79.8073	201.913	-36.9894	50.9348	
145	1.20833	178.318	-4.43845	61.8685	172.653	9.28773	30.8403	170.267	14.4275	4.10668	163.474	13.3484	-20.7387	168.101	-31.1382	-23.0602	138.748	-30.7141	-32.3153	111.245	-24.9729	-11.293	167.107	-54.9874	-21.3572	130.791	-49.1051	-27.9605	109.327	-40.2692	3.84825	157.519	-74.7225	-12.9235	123.16	-65.9361	-14.3869	112.149	-53.801	15.5437	155.129	-92.6965	7.27724	128.941	-80.5629	-1.44221	116.719	-58.2074	19.8072	192.211	-74.5197	43.9218	195.892	-66.6337	77.7936	201.63	-38.7997	52.5153	
146	1.21667	179.781	-4.43111	58.3879	171.074	9.15976	33.5457	168.846	11.7226	2.46734	157.863	9.74501	-18.6266	168.228	-27.7098	-25.1075	140.738	-28.8127	-32.7016	111.083	-28.313	-7.84113	166.417	-54.8933	-21.1812	129.974	-50.1612	-26.9115	110.131	-39.7742	7.59117	158.569	-76.2044	-10.5181	124.115	-66.946	-13.2955	112.816	-54.0059	13.8205	153.17	-93.8091	4.75394	128.086	-79.0349	-0.468999	122.241	-55.5194	20.3476	195.559	-70.7909	39.8809	195.195	-67.3071	76.0113	200.201	-36.4089	53.9212	
